AdventPro-thn_wd.ufo
<glyph name="parenright" format="2">
  <advance width="255" height="962"/>
  <unicode hex="0029"/>
  <outline>
    <contour>
      <point x="33" y="800" type="line"/>
      <point x="117" y="760"/>
      <point x="173" y="731"/>
      <point x="173" y="637" type="curve" smooth="yes"/>
      <point x="173" y="65" type="line" smooth="yes"/>
      <point x="173" y="-50"/>
      <point x="73" y="-81"/>
      <point x="31" y="-102" type="curve"/>
      <point x="39" y="-120" type="line"/>
      <point x="150" y="-71"/>
      <point x="193" y="-31"/>
      <point x="193" y="69" type="curve" smooth="yes"/>
      <point x="193" y="627" type="line" smooth="yes"/>
      <point x="193" y="725"/>
      <point x="148" y="769"/>
      <point x="39" y="816" type="curve"/>
    </contour>
  </outline>
</glyph>
<glyph name="at" format="2">
  <advance width="1049" height="962"/>
  <unicode hex="0040"/>
  <outline>
    <contour>
      <point x="1020" y="474" type="line"/>
      <point x="984" y="454"/>
      <point x="969" y="444"/>
      <point x="969" y="387" type="curve" smooth="yes"/>
      <point x="969" y="171" type="line" smooth="yes"/>
      <point x="969" y="13"/>
      <point x="729" y="-67"/>
      <point x="491" y="-67" type="curve" smooth="yes"/>
      <point x="216" y="-67"/>
      <point x="30" y="22"/>
      <point x="30" y="202" type="curve" smooth="yes"/>
      <point x="30" y="339" type="line" smooth="yes"/>
      <point x="30" y="478"/>
      <point x="165" y="581"/>
      <point x="423" y="581" type="curve" smooth="yes"/>
      <point x="578" y="581"/>
      <point x="730" y="538"/>
      <point x="753" y="443" type="curve"/>
      <point x="854" y="443" type="line"/>
      <point x="848" y="425" type="line"/>
      <point x="755" y="425" type="line"/>
      <point x="755" y="69" type="line"/>
      <point x="756" y="70"/>
      <point x="587" y="61"/>
      <point x="479" y="61" type="curve" smooth="yes"/>
      <point x="278" y="61"/>
      <point x="216" y="121"/>
      <point x="216" y="213" type="curve" smooth="yes"/>
      <point x="216" y="299" type="line" smooth="yes"/>
      <point x="216" y="429"/>
      <point x="319" y="443"/>
      <point x="436" y="443" type="curve" smooth="yes"/>
      <point x="733" y="443" type="line"/>
      <point x="710" y="510"/>
      <point x="606" y="563"/>
      <point x="423" y="563" type="curve" smooth="yes"/>
      <point x="243" y="563"/>
      <point x="49" y="502"/>
      <point x="49" y="339" type="curve" smooth="yes"/>
      <point x="49" y="201" type="line" smooth="yes"/>
      <point x="49" y="46"/>
      <point x="207" y="-48"/>
      <point x="498" y="-48" type="curve" smooth="yes"/>
      <point x="713" y="-48"/>
      <point x="947" y="25"/>
      <point x="947" y="169" type="curve" smooth="yes"/>
      <point x="947" y="372" type="line" smooth="yes"/>
      <point x="947" y="438"/>
      <point x="953" y="462"/>
      <point x="1010" y="488" type="curve"/>
    </contour>
    <contour>
      <point x="428" y="425" type="line" smooth="yes"/>
      <point x="295" y="425"/>
      <point x="236" y="394"/>
      <point x="236" y="296" type="curve" smooth="yes"/>
      <point x="236" y="218" type="line" smooth="yes"/>
      <point x="236" y="110"/>
      <point x="320" y="79"/>
      <point x="477" y="79" type="curve" smooth="yes"/>
      <point x="581" y="79"/>
      <point x="736" y="88"/>
      <point x="735" y="87" type="curve"/>
      <point x="735" y="425" type="line"/>
    </contour>
  </outline>
</glyph>
<glyph name="Q" format="2">
  <advance width="695" height="962"/>
  <unicode hex="0051"/>
  <outline>
    <component base="O"/>
    <contour>
      <point x="371" y="43" type="line" smooth="yes"/>
      <point x="371" y="-50"/>
      <point x="443" y="-76"/>
      <point x="587" y="-76" type="curve"/>
      <point x="585" y="-97" type="line"/>
      <point x="423" y="-97"/>
      <point x="350" y="-62"/>
      <point x="350" y="43" type="curve" smooth="yes"/>
      <point x="350" y="174" type="line"/>
      <point x="371" y="174" type="line"/>
    </contour>
  </outline>
</glyph>
<glyph name="Z" format="2">
  <advance width="778" height="962"/>
  <unicode hex="005A"/>
  <outline>
    <contour>
      <point x="39" y="700" type="line"/>
      <point x="743" y="700" type="line"/>
      <point x="743" y="681" type="line"/>
      <point x="80" y="44" type="line"/>
      <point x="53" y="19" type="line"/>
      <point x="752" y="18" type="line"/>
      <point x="752" y="0" type="line"/>
      <point x="27" y="0" type="line"/>
      <point x="27" y="20" type="line"/>
      <point x="686" y="655" type="line"/>
      <point x="714" y="681" type="line"/>
      <point x="39" y="682" type="line"/>
    </contour>
  </outline>
</glyph>
<glyph name="asciitilde" format="2">
  <advance width="267" height="962"/>
  <unicode hex="007E"/>
  <outline>
    <contour>
      <point x="279" y="308" type="line"/>
      <point x="255" y="287"/>
      <point x="231" y="279"/>
      <point x="209" y="279" type="curve" smooth="yes"/>
      <point x="157" y="279"/>
      <point x="108" y="318"/>
      <point x="63" y="318" type="curve" smooth="yes"/>
      <point x="43" y="318"/>
      <point x="22" y="311"/>
      <point x="-1" y="288" type="curve"/>
      <point x="-12" y="305" type="line"/>
      <point x="15" y="331"/>
      <point x="40" y="338"/>
      <point x="65" y="338" type="curve" smooth="yes"/>
      <point x="116" y="338"/>
      <point x="161" y="300"/>
      <point x="205" y="298" type="curve" smooth="yes"/>
      <point x="226" y="297"/>
      <point x="247" y="303"/>
      <point x="269" y="323" type="curve"/>
    </contour>
  </outline>
</glyph>
<glyph name="guillemotleft" format="2">
  <advance width="736"/>
  <unicode hex="00AB"/>
  <outline>
    <contour>
      <point x="420" y="267" type="line"/>
      <point x="681" y="441" type="line"/>
      <point x="665" y="461" type="line"/>
      <point x="377" y="267" type="line"/>
      <point x="664" y="74" type="line"/>
      <point x="679" y="95" type="line"/>
    </contour>
    <contour>
      <point x="92" y="267" type="line"/>
      <point x="351" y="441" type="line"/>
      <point x="333" y="461" type="line"/>
      <point x="47" y="267" type="line"/>
      <point x="332" y="74" type="line"/>
      <point x="349" y="95" type="line"/>
    </contour>
  </outline>
</glyph>
<glyph name="guillemotright" format="2">
  <advance width="725" height="962"/>
  <unicode hex="00BB"/>
  <outline>
    <contour>
      <point x="308" y="267" type="line"/>
      <point x="47" y="441" type="line"/>
      <point x="60" y="460" type="line"/>
      <point x="351" y="267" type="line"/>
      <point x="60" y="76" type="line"/>
      <point x="48" y="97" type="line"/>
    </contour>
    <contour>
      <point x="636" y="267" type="line"/>
      <point x="377" y="441" type="line"/>
      <point x="392" y="460" type="line"/>
      <point x="681" y="267" type="line"/>
      <point x="392" y="76" type="line"/>
      <point x="378" y="97" type="line"/>
    </contour>
  </outline>
</glyph>
<glyph name="AE" format="2">
  <advance width="1091" height="962"/>
  <unicode hex="00C6"/>
  <outline>
    <contour>
      <point x="575" y="0" type="line"/>
      <point x="575" y="343" type="line"/>
      <point x="237.308" y="343" type="line"/>
      <point x="38" y="0" type="line"/>
      <point x="18" y="0" type="line"/>
      <point x="423" y="700" type="line"/>
      <point x="1064" y="700" type="line"/>
      <point x="1064" y="680" type="line"/>
      <point x="594" y="680" type="line"/>
      <point x="594" y="362.954" type="line"/>
      <point x="938" y="362.954" type="line"/>
      <point x="930" y="342.954" type="line"/>
      <point x="594" y="342.954" type="line"/>
      <point x="594" y="20" type="line"/>
      <point x="1064" y="20" type="line"/>
      <point x="1064" y="0" type="line"/>
    </contour>
    <contour>
      <point x="248.308" y="363" type="line"/>
      <point x="575" y="363" type="line"/>
      <point x="575" y="680" type="line"/>
      <point x="431" y="680" type="line"/>
    </contour>
  </outline>
  <guideline angle="0" x="0" y="300"/>
</glyph>
<glyph name="tbar" format="2">
  <advance width="365" height="962"/>
  <unicode hex="0167"/>
  <outline>
    <component base="t" xOffset="38"/>
    <contour>
      <point x="333" y="340" type="line"/>
      <point x="0" y="340" type="line"/>
      <point x="0" y="356" type="line"/>
      <point x="333" y="356" type="line"/>
    </contour>
  </outline>
</glyph>
<glyph name="dieresistonos" format="2">
  <advance width="267" height="962"/>
  <unicode hex="0385"/>
  <outline>
    <contour>
      <point x="71" y="692" type="curve" smooth="yes"/>
      <point x="71" y="683"/>
      <point x="64" y="675"/>
      <point x="54" y="675" type="curve" smooth="yes"/>
      <point x="45" y="675"/>
      <point x="36" y="683"/>
      <point x="36" y="692" type="curve" smooth="yes"/>
      <point x="36" y="703"/>
      <point x="45" y="708"/>
      <point x="54" y="708" type="curve" smooth="yes"/>
      <point x="64" y="708"/>
      <point x="71" y="703"/>
    </contour>
    <contour>
      <point x="230" y="692" type="curve" smooth="yes"/>
      <point x="230" y="683"/>
      <point x="222" y="675"/>
      <point x="212" y="675" type="curve" smooth="yes"/>
      <point x="202" y="675"/>
      <point x="196" y="683"/>
      <point x="196" y="692" type="curve" smooth="yes"/>
      <point x="196" y="703"/>
      <point x="202" y="708"/>
      <point x="212" y="708" type="curve" smooth="yes"/>
      <point x="222" y="708"/>
      <point x="230" y="703"/>
    </contour>
    <contour>
      <point x="195" y="827" type="curve" smooth="yes"/>
      <point x="140" y="726" type="line"/>
      <point x="118" y="726" type="line"/>
      <point x="169" y="840" type="line" smooth="yes"/>
      <point x="174" y="852"/>
      <point x="186" y="853"/>
      <point x="193" y="849" type="curve" smooth="yes"/>
      <point x="199" y="845"/>
      <point x="200" y="836"/>
    </contour>
  </outline>
</glyph>
<glyph name="uni0409" format="2">
  <advance width="1237" height="962"/>
  <unicode hex="0409"/>
  <outline>
    <contour>
      <point x="964" y="411" type="line" smooth="yes"/>
      <point x="1167" y="411"/>
      <point x="1207" y="315"/>
      <point x="1207" y="251" type="curve" smooth="yes"/>
      <point x="1207" y="168" type="line" smooth="yes"/>
      <point x="1207" y="49"/>
      <point x="1117" y="-11"/>
      <point x="900" y="-11" type="curve" smooth="yes"/>
      <point x="843" y="-11"/>
      <point x="630" y="-1"/>
      <point x="634" y="-1" type="curve"/>
      <point x="634" y="683" type="line"/>
      <point x="548" y="683" type="line" smooth="yes"/>
      <point x="417" y="683"/>
      <point x="381" y="617"/>
      <point x="363" y="578" type="curve" smooth="yes"/>
      <point x="151" y="112" type="line" smooth="yes"/>
      <point x="121" y="47"/>
      <point x="100" y="18"/>
      <point x="27" y="-8" type="curve"/>
      <point x="16" y="5" type="line"/>
      <point x="99" y="34"/>
      <point x="115" y="77"/>
      <point x="133" y="117" type="curve" smooth="yes"/>
      <point x="348" y="590" type="line" smooth="yes"/>
      <point x="368" y="634"/>
      <point x="411" y="700"/>
      <point x="542" y="700" type="curve" smooth="yes"/>
      <point x="655" y="700" type="line"/>
      <point x="655" y="411" type="line"/>
    </contour>
    <contour>
      <point x="1186" y="162" type="curve" smooth="yes"/>
      <point x="1186" y="249" type="line" smooth="yes"/>
      <point x="1186" y="323"/>
      <point x="1122" y="392"/>
      <point x="966" y="392" type="curve" smooth="yes"/>
      <point x="655" y="392" type="line"/>
      <point x="655" y="17" type="line"/>
      <point x="660" y="16"/>
      <point x="835" y="7"/>
      <point x="900" y="7" type="curve" smooth="yes"/>
      <point x="1135" y="7"/>
      <point x="1186" y="89"/>
    </contour>
  </outline>
</glyph>
<glyph name="uni0418" format="2">
  <advance width="823" height="962"/>
  <unicode hex="0418"/>
  <outline>
    <contour>
      <point x="41" y="700" type="line"/>
      <point x="60" y="700" type="line"/>
      <point x="60" y="25" type="line"/>
      <point x="761" y="700" type="line"/>
      <point x="780" y="700" type="line"/>
      <point x="780" y="0" type="line"/>
      <point x="761" y="0" type="line"/>
      <point x="761" y="673" type="line"/>
      <point x="60" y="0" type="line"/>
      <point x="41" y="0" type="line"/>
    </contour>
  </outline>
</glyph>
<glyph name="uni042D" format="2">
  <advance width="609" height="962"/>
  <unicode hex="042D"/>
  <outline>
    <contour>
      <point x="79" y="660" type="curve"/>
      <point x="71" y="677" type="line"/>
      <point x="140" y="699"/>
      <point x="203" y="710"/>
      <point x="288" y="710" type="curve" smooth="yes"/>
      <point x="420" y="710"/>
      <point x="578" y="684"/>
      <point x="578" y="521" type="curve" smooth="yes"/>
      <point x="578" y="174" type="line" smooth="yes"/>
      <point x="578" y="6"/>
      <point x="408" y="-10"/>
      <point x="276" y="-10" type="curve" smooth="yes"/>
      <point x="198" y="-10"/>
      <point x="117" y="1"/>
      <point x="33" y="23" type="curve"/>
      <point x="38" y="41" type="line"/>
      <point x="122" y="18"/>
      <point x="210" y="8"/>
      <point x="270" y="8" type="curve" smooth="yes"/>
      <point x="389" y="8"/>
      <point x="559" y="20"/>
      <point x="559" y="176" type="curve" smooth="yes"/>
      <point x="559" y="395" type="line"/>
      <point x="225" y="395" type="line"/>
      <point x="216" y="413" type="line"/>
      <point x="559" y="413" type="line"/>
      <point x="559" y="521" type="line" smooth="yes"/>
      <point x="559" y="672"/>
      <point x="408" y="691"/>
      <point x="288" y="691" type="curve" smooth="yes"/>
      <point x="216" y="691"/>
      <point x="145" y="683"/>
    </contour>
  </outline>
</glyph>
<glyph name="uni0473" format="2">
  <advance width="613" height="962"/>
  <unicode hex="0473"/>
  <outline>
    <contour>
      <point x="584" y="185" type="line" smooth="yes"/>
      <point x="584" y="48"/>
      <point x="492" y="-10"/>
      <point x="311" y="-10" type="curve" smooth="yes"/>
      <point x="117" y="-10"/>
      <point x="29" y="57"/>
      <point x="29" y="185" type="curve" smooth="yes"/>
      <point x="29" y="316" type="line" smooth="yes"/>
      <point x="29" y="463"/>
      <point x="132" y="512"/>
      <point x="311" y="512" type="curve" smooth="yes"/>
      <point x="489" y="512"/>
      <point x="584" y="458"/>
      <point x="584" y="316" type="curve" smooth="yes"/>
    </contour>
    <contour>
      <point x="564" y="320" type="line" smooth="yes"/>
      <point x="564" y="455"/>
      <point x="464" y="494"/>
      <point x="311" y="494" type="curve" smooth="yes"/>
      <point x="144" y="494"/>
      <point x="48" y="449"/>
      <point x="48" y="320" type="curve" smooth="yes"/>
      <point x="48" y="185" type="line" smooth="yes"/>
      <point x="48" y="66"/>
      <point x="134" y="8"/>
      <point x="311" y="8" type="curve" smooth="yes"/>
      <point x="482" y="8"/>
      <point x="564" y="64"/>
      <point x="564" y="185" type="curve" smooth="yes"/>
    </contour>
    <contour>
      <point x="44" y="260" type="line"/>
      <point x="570" y="260" type="line"/>
      <point x="570" y="240" type="line"/>
      <point x="44" y="240" type="line"/>
    </contour>
  </outline>
</glyph>
<glyph name="uni0491" format="2">
  <advance width="458" height="962"/>
  <unicode hex="0491"/>
  <outline>
    <component base="uni0433"/>
    <contour>
      <point x="429" y="571" type="line"/>
      <point x="447" y="571" type="line"/>
      <point x="447" y="490" type="line"/>
      <point x="427" y="490" type="line"/>
      <point x="427" y="500" type="line"/>
    </contour>
  </outline>
</glyph>
<glyph name="uni049C" format="2">
  <advance width="764" height="962"/>
  <unicode hex="049C"/>
  <outline>
    <contour>
      <point x="740" y="0" type="line"/>
      <point x="714" y="0" type="line"/>
      <point x="326" y="393" type="line"/>
      <point x="209" y="393" type="line"/>
      <point x="209" y="322" type="line"/>
      <point x="189" y="322" type="line"/>
      <point x="189" y="393" type="line"/>
      <point x="60" y="393" type="line"/>
      <point x="60" y="0" type="line"/>
      <point x="41" y="0" type="line"/>
      <point x="41" y="700" type="line"/>
      <point x="60" y="700" type="line"/>
      <point x="60" y="413" type="line"/>
      <point x="189" y="413" type="line"/>
      <point x="189" y="484" type="line"/>
      <point x="209" y="484" type="line"/>
      <point x="209" y="413" type="line"/>
      <point x="314" y="413" type="line"/>
      <point x="635" y="700" type="line"/>
      <point x="662" y="700" type="line"/>
      <point x="338" y="408" type="line"/>
    </contour>
  </outline>
</glyph>
<glyph name="uni04B0" format="2">
  <advance width="720" height="962"/>
  <unicode hex="04B0"/>
  <outline>
    <component base="uni04AE"/>
    <contour>
      <point x="153" y="218" type="line"/>
      <point x="572" y="218" type="line"/>
      <point x="572" y="198" type="line"/>
      <point x="153" y="198" type="line"/>
    </contour>
  </outline>
</glyph>
<glyph name="uni04CB" format="2">
  <advance width="712" height="962"/>
  <unicode hex="04CB"/>
  <outline>
    <component base="uni0427"/>
    <contour>
      <point x="641" y="18" type="line"/>
      <point x="679" y="18" type="line"/>
      <point x="679" y="0" type="line"/>
      <point x="662" y="0" type="line"/>
      <point x="659" y="-87" type="line"/>
      <point x="641" y="-87" type="line"/>
    </contour>
  </outline>
</glyph>
<glyph name="uni04D8" format="2">
  <advance width="699" height="962"/>
  <unicode hex="04D8"/>
  <outline>
    <contour>
      <point x="375" y="710" type="curve" smooth="yes"/>
      <point x="525" y="710"/>
      <point x="667" y="670"/>
      <point x="667" y="524" type="curve" smooth="yes"/>
      <point x="667" y="176" type="line" smooth="yes"/>
      <point x="667" y="43"/>
      <point x="541" y="-11"/>
      <point x="352" y="-11" type="curve" smooth="yes"/>
      <point x="177" y="-11"/>
      <point x="34" y="36"/>
      <point x="34" y="176" type="curve" smooth="yes"/>
      <point x="34" y="335" type="line"/>
      <point x="646" y="353" type="line"/>
      <point x="646" y="524" type="line" smooth="yes"/>
      <point x="646" y="642"/>
      <point x="544" y="691"/>
      <point x="370" y="691" type="curve" smooth="yes"/>
      <point x="307" y="691"/>
      <point x="237" y="683"/>
      <point x="171" y="660" type="curve"/>
      <point x="162" y="677" type="line"/>
      <point x="222" y="699"/>
      <point x="294" y="710"/>
    </contour>
    <contour>
      <point x="352" y="8" type="curve" smooth="yes"/>
      <point x="516" y="8"/>
      <point x="646" y="46"/>
      <point x="646" y="175" type="curve" smooth="yes"/>
      <point x="646" y="335" type="line"/>
      <point x="53" y="317" type="line"/>
      <point x="53" y="175" type="line" smooth="yes"/>
      <point x="53" y="46"/>
      <point x="193" y="8"/>
    </contour>
  </outline>
</glyph>
<glyph name="uni1E9E" format="2">
  <advance width="662"/>
  <unicode hex="1E9E"/>
  <outline>
    <contour>
      <point x="41" y="700" type="line"/>
      <point x="558" y="700" type="line"/>
      <point x="558" y="680" type="line"/>
      <point x="258" y="414" type="line"/>
      <point x="343" y="414" type="line" smooth="yes"/>
      <point x="520" y="414"/>
      <point x="642" y="340"/>
      <point x="641" y="202" type="curve" smooth="yes"/>
      <point x="640" y="73"/>
      <point x="518" y="-12"/>
      <point x="328" y="-12" type="curve" smooth="yes"/>
      <point x="233.063" y="-12"/>
      <point x="158.381" y="10.0426"/>
      <point x="102.116" y="46.3108" type="curve"/>
      <point x="114.261" y="63.6854" type="line"/>
      <point x="170.058" y="26.2375"/>
      <point x="242.926" y="7"/>
      <point x="319" y="7" type="curve" smooth="yes"/>
      <point x="506" y="7"/>
      <point x="621" y="83"/>
      <point x="622" y="208" type="curve" smooth="yes"/>
      <point x="623" y="325"/>
      <point x="503" y="394"/>
      <point x="352" y="394" type="curve" smooth="yes"/>
      <point x="205" y="394" type="line"/>
      <point x="531" y="680" type="line"/>
      <point x="60" y="680" type="line"/>
      <point x="60" y="0" type="line"/>
      <point x="41" y="0" type="line"/>
    </contour>
  </outline>
</glyph>
<glyph name="bullet" format="2">
  <advance width="269" height="962"/>
  <unicode hex="2022"/>
  <outline>
    <contour>
      <point x="207" y="409" type="curve" smooth="yes"/>
      <point x="227" y="388"/>
      <point x="237" y="364"/>
      <point x="237" y="336" type="curve" smooth="yes"/>
      <point x="237" y="310"/>
      <point x="225" y="284"/>
      <point x="207" y="264" type="curve" smooth="yes"/>
      <point x="186" y="243"/>
      <point x="162" y="233"/>
      <point x="134" y="233" type="curve" smooth="yes"/>
      <point x="105" y="233"/>
      <point x="80" y="243"/>
      <point x="60" y="264" type="curve" smooth="yes"/>
      <point x="40" y="284"/>
      <point x="30" y="308"/>
      <point x="30" y="336" type="curve" smooth="yes"/>
      <point x="30" y="365"/>
      <point x="40" y="389"/>
      <point x="60" y="409" type="curve" smooth="yes"/>
      <point x="80" y="430"/>
      <point x="105" y="440"/>
      <point x="134" y="440" type="curve" smooth="yes"/>
      <point x="162" y="440"/>
      <point x="186" y="430"/>
    </contour>
  </outline>
</glyph>
<glyph name="Euro" format="2">
  <advance width="603" height="962"/>
  <unicode hex="20AC"/>
  <outline>
    <component base="C"/>
    <contour>
      <point x="4" y="394" type="line"/>
      <point x="4" y="412" type="line"/>
      <point x="528" y="412" type="line"/>
      <point x="528" y="394" type="line"/>
    </contour>
    <contour>
      <point x="4" y="289" type="line"/>
      <point x="4" y="308" type="line"/>
      <point x="528" y="308" type="line"/>
      <point x="528" y="289" type="line"/>
    </contour>
  </outline>
</glyph>
<glyph name="descendercomb" format="2">
  <advance width="267" height="962"/>
  <outline>
    <contour>
      <point x="119" y="6" type="line"/>
      <point x="135" y="5" type="line"/>
      <point x="135" y="-2" type="line"/>
      <point x="208" y="-110" type="line" smooth="yes"/>
      <point x="249" y="-170"/>
      <point x="189" y="-243"/>
      <point x="119" y="-221" type="curve" smooth="yes"/>
      <point x="34" y="-194" type="line"/>
      <point x="40" y="-174" type="line"/>
      <point x="112" y="-200" type="line" smooth="yes"/>
      <point x="177" y="-224"/>
      <point x="224" y="-170"/>
      <point x="192" y="-119" type="curve" smooth="yes"/>
      <point x="119" y="-3" type="line"/>
    </contour>
  </outline>
</glyph>
